<?xml version="1.0" standalone="no"?>
<!DOCTYPE svg PUBLIC "-//W3C//DTD SVG 20010904//EN"
 "http://www.w3.org/TR/2001/REC-SVG-20010904/DTD/svg10.dtd">
<svg version="1.0" xmlns="http://www.w3.org/2000/svg"
 width="2000.000000pt" height="2046.000000pt" viewBox="0 0 2000.000000 2046.000000"
 preserveAspectRatio="xMidYMid meet">
<metadata>
Created by potrace 1.16, written by Peter Selinger 2001-2019
</metadata>
<g transform="translate(0.000000,2046.000000) scale(0.100000,-0.100000)"
fill="#000000" stroke="none">
<path d="M12340 20431 c0 -27 -3 -29 -52 -35 -95 -12 -241 -68 -339 -129 -70
-43 -193 -154 -234 -211 -11 -15 -30 -39 -42 -53 -54 -65 -135 -265 -154 -383
-20 -121 23 -271 102 -349 27 -28 36 -30 264 -81 25 -5 64 -14 88 -20 23 -5
94 -20 157 -34 63 -14 257 -57 430 -97 367 -83 370 -83 370 -75 0 3 -27 53
-60 109 -83 145 -114 241 -108 336 5 69 8 77 38 104 l33 29 136 -4 c152 -6
217 -21 427 -104 314 -123 497 -233 689 -416 l61 -57 99 43 c235 101 406 199
720 411 99 67 216 139 260 161 73 35 89 39 178 42 154 7 203 -20 266 -147 16
-31 41 -99 56 -151 42 -148 100 -250 214 -376 54 -60 103 -119 109 -131 7 -12
12 -62 12 -110 0 -81 -3 -93 -28 -134 -32 -49 -93 -109 -194 -188 -38 -29 -68
-57 -68 -61 0 -5 15 -11 33 -15 17 -3 50 -10 72 -15 22 -5 92 -21 155 -35 63
-14 144 -33 180 -41 36 -8 83 -19 105 -24 22 -5 69 -16 105 -24 68 -15 151
-34 385 -87 77 -17 185 -42 240 -54 55 -12 154 -35 220 -50 144 -33 168 -38
265 -59 41 -9 102 -23 135 -31 65 -15 250 -57 355 -81 36 -8 84 -19 108 -24
23 -6 61 -14 85 -19 23 -5 71 -16 107 -25 36 -8 154 -34 263 -58 l197 -43 0
-50 c0 -48 -6 -59 -126 -235 -905 -1326 -1666 -2784 -2257 -4325 -751 -1961
-1182 -3933 -1257 -5760 -18 -430 -10 -960 14 -952 8 2 13 117 17 363 14 773
119 1552 341 2529 55 242 174 703 243 940 355 1212 824 2431 1389 3608 42 87
76 160 76 163 0 6 229 477 241 494 5 8 26 47 45 85 20 39 46 88 58 110 13 22
44 81 70 130 26 50 60 110 76 135 15 25 29 51 29 59 1 8 7 22 15 30 8 9 27 40
42 69 16 30 39 70 51 90 12 20 25 44 28 52 16 36 9 24 115 200 30 51 61 101
68 113 7 12 23 39 35 59 73 123 133 221 167 273 22 33 43 67 47 75 4 8 14 26
24 40 28 40 114 174 119 185 7 15 218 327 283 420 31 44 73 103 92 130 116
166 284 385 296 385 5 0 9 5 9 11 0 12 57 85 108 138 17 19 32 38 32 43 0 9
160 191 172 196 5 2 8 10 8 17 0 8 6 18 13 22 25 16 147 161 147 175 0 8 10
20 23 26 32 15 137 101 143 117 3 7 24 32 46 56 38 39 118 187 118 216 0 8 12
13 30 13 l30 0 0 155 0 155 -35 0 c-29 0 -35 4 -35 20 0 20 -35 99 -49 110 -3
3 -13 18 -21 34 -15 30 -144 164 -191 199 -13 10 -49 32 -79 50 -30 17 -59 36
-65 43 -12 14 -125 42 -215 54 -36 5 -112 22 -170 38 -58 17 -139 37 -180 46
-41 9 -93 21 -115 26 -22 5 -105 24 -185 41 -80 17 -161 35 -180 39 -19 5 -62
13 -95 20 -33 6 -141 30 -240 52 -99 22 -209 46 -245 53 -36 8 -240 53 -455
100 -214 48 -419 93 -455 100 -36 8 -220 48 -410 90 -190 42 -394 87 -455 100
-60 13 -141 30 -180 39 -38 9 -338 76 -665 147 -720 159 -643 142 -770 168
-58 12 -143 31 -190 42 -135 31 -160 37 -245 54 -44 9 -118 26 -165 36 -47 11
-105 24 -130 30 -25 5 -128 28 -230 50 -102 23 -214 47 -250 54 -52 11 -276
61 -560 125 -86 20 -139 31 -192 41 -55 11 -58 13 -58 40 l0 29 -75 0 -75 0 0
-29z"/>
<path d="M3130 13383 c15 -41 87 -365 231 -1038 21 -97 32 -181 36 -273 6
-130 6 -133 27 -128 11 3 71 13 131 22 61 9 112 18 113 20 2 1 -8 37 -22 79
-26 77 -72 277 -205 897 -50 231 -71 347 -71 397 l0 71 -129 0 -129 0 18 -47z"/>
<path d="M3835 13385 c87 -53 141 -110 183 -194 37 -75 37 -75 37 -205 0 -72
-4 -142 -9 -156 -15 -45 92 70 122 130 92 189 -75 402 -358 455 -32 6 -30 4
25 -30z"/>
<path d="M6700 13254 c0 -20 -41 -161 -91 -315 l-91 -279 -51 0 c-48 0 -55 3
-95 44 -55 56 -144 103 -227 121 -55 11 -74 11 -127 -2 -35 -8 -93 -17 -130
-20 l-68 -5 0 50 c0 38 17 96 69 234 72 192 73 198 15 184 -21 -6 -24 -12 -24
-49 0 -32 -43 -150 -170 -467 -93 -234 -170 -428 -170 -432 0 -4 38 -4 85 -1
l85 6 42 -39 c57 -53 101 -78 175 -103 101 -34 191 -24 312 35 69 34 169 132
201 198 13 27 31 51 42 54 14 3 18 14 18 48 0 23 5 55 11 71 16 43 219 686
219 695 0 4 -7 8 -15 8 -11 0 -15 -11 -15 -36z"/>
<path d="M4728 13233 c-36 -4 -36 -5 -27 -37 41 -148 149 -668 149 -717 l0
-59 -50 0 c-45 0 -56 5 -108 47 -108 88 -231 126 -344 105 -194 -36 -372 -202
-372 -347 0 -156 210 -325 403 -325 153 0 323 101 402 238 22 39 27 41 104 56
44 9 89 16 100 16 44 0 48 12 26 96 -54 212 -183 807 -188 867 -7 75 1 70 -95
60z"/>
<path d="M8890 12391 l0 -100 98 -31 c258 -83 995 -232 1540 -312 l152 -22 0
-72 c0 -40 -23 -251 -50 -469 -28 -219 -49 -402 -48 -407 2 -6 39 144 82 333
43 189 109 475 146 634 37 160 66 291 65 293 -1 1 -36 -6 -76 -18 -248 -69
-780 -69 -1169 0 -285 51 -587 156 -707 247 l-33 24 0 -100z"/>
<path d="M6960 11972 c-126 -42 -225 -121 -277 -219 -44 -83 -48 -110 -23
-177 53 -141 250 -254 396 -227 156 30 292 130 351 257 32 70 32 111 -1 178
-75 153 -285 242 -446 188z"/>
<path d="M5434 11766 c-168 -54 -307 -202 -308 -326 0 -121 135 -252 305 -296
203 -52 500 146 503 336 1 60 -35 128 -99 189 -58 55 -104 81 -184 105 -74 22
-132 20 -217 -8z"/>
<path d="M4114 11275 c-171 -37 -319 -160 -355 -296 -11 -40 -10 -53 4 -90 10
-24 21 -50 26 -58 6 -9 112 -34 303 -71 l293 -57 42 29 c81 55 155 171 155
244 0 71 -73 177 -160 233 -99 63 -210 87 -308 66z"/>
<path d="M6411 11005 c-170 -48 -331 -206 -331 -324 0 -57 41 -131 103 -188
159 -145 393 -132 565 30 139 132 150 243 37 365 -98 106 -247 152 -374 117z"/>
<path d="M10160 10799 c-129 -16 -314 -38 -410 -50 -302 -36 -728 -38 -897 -3
-31 6 -33 5 -33 -20 0 -25 -2 -26 -53 -26 -29 0 -59 6 -66 13 -11 10 -12 8 -8
-8 3 -11 27 -180 53 -375 26 -195 51 -359 54 -363 4 -5 45 12 91 36 908 482
1526 812 1534 819 12 11 6 10 -265 -23z"/>
<path d="M14980 10571 c-1186 -457 -3473 -1724 -4595 -2546 -133 -97 -147
-110 -122 -113 24 -3 27 -7 27 -43 0 -21 1 -39 3 -40 7 -2 782 -96 783 -95 0
0 -9 114 -22 251 -12 138 -23 287 -23 332 l-1 81 163 87 c89 48 273 145 408
216 223 117 251 129 297 129 43 0 52 -3 52 -18 0 -10 11 -150 25 -312 14 -162
25 -311 25 -332 l0 -38 -56 0 c-55 0 -59 2 -217 110 -88 60 -162 109 -163 107
-3 -3 54 -539 58 -543 4 -3 570 367 610 398 15 12 14 35 -12 323 -16 171 -29
348 -29 395 l0 85 97 47 c1141 555 1921 889 2557 1096 94 30 171 56 173 57 11
9 107 415 98 414 -6 0 -67 -22 -136 -48z"/>
<path d="M5272 10558 c-24 -5 -42 -12 -39 -14 6 -7 359 -75 369 -72 18 6 -100
68 -157 83 -66 17 -109 18 -173 3z"/>
<path d="M11935 10424 c-55 -30 -104 -59 -108 -63 -9 -9 33 -542 44 -554 4 -5
55 17 113 49 80 44 106 64 106 79 1 47 -44 545 -49 545 -4 0 -51 -25 -106 -56z"/>
<path d="M9660 9159 c-217 -121 -396 -221 -397 -223 -1 -1 3 -21 9 -45 7 -28
18 -45 30 -49 13 -3 18 -14 18 -43 0 -28 4 -39 15 -39 12 0 15 -13 15 -55 0
-48 2 -55 20 -55 17 0 20 -7 20 -40 0 -29 4 -40 15 -40 12 0 15 -13 15 -55 0
-48 3 -55 19 -55 16 0 20 -8 23 -40 l3 -39 115 75 c182 119 434 275 705 437
138 82 251 150 252 151 3 3 -42 34 -302 211 l-181 123 -394 -219z"/>
<path d="M14630 9241 c-914 -576 -2167 -1498 -3440 -2529 -118 -96 -224 -184
-235 -195 -11 -11 54 31 145 93 91 62 326 220 523 352 l358 239 52 -3 52 -3
41 -493 c23 -271 44 -495 47 -498 7 -8 227 145 234 162 2 7 -14 217 -36 466
-23 249 -41 485 -41 525 l0 72 233 149 c884 567 1662 1031 2048 1222 l106 53
12 61 c7 34 30 146 52 249 23 104 39 190 37 192 -1 1 -86 -50 -188 -114z"/>
<path d="M2596 7879 c52 -96 98 -177 103 -181 6 -7 2799 -588 2823 -588 7 0
-38 130 -50 142 -6 5 -2883 782 -2949 796 -20 4 -10 -19 73 -169z"/>
<path d="M9561 7779 c-1 -10 718 -2813 726 -2830 7 -15 25 -9 143 43 74 33
136 61 137 62 1 1 -68 190 -153 420 -120 326 -154 430 -154 468 0 40 -3 48
-18 48 -15 0 -34 42 -96 213 -43 116 -166 449 -272 740 -107 290 -194 536
-194 546 0 11 -4 21 -9 23 -5 2 -32 64 -60 138 -27 74 -50 132 -50 129z"/>
<path d="M6167 7025 c8 -25 19 -48 24 -51 13 -8 1361 -286 1365 -281 3 3
-1383 377 -1398 377 -4 0 0 -20 9 -45z"/>
<path d="M15772 6059 c-457 -79 -923 -617 -1092 -1262 -107 -407 -67 -768 114
-1020 91 -129 212 -210 354 -238 203 -41 533 131 767 400 148 171 245 319 328
505 218 487 244 957 71 1287 -118 224 -346 362 -542 328z m63 -643 c91 -42
153 -138 176 -270 17 -103 6 -331 -21 -426 -67 -232 -220 -440 -386 -521 -61
-30 -78 -34 -172 -38 -156 -5 -231 25 -292 117 -55 83 -70 154 -70 332 0 134
4 172 24 253 56 219 173 401 324 501 89 59 145 74 267 75 85 1 108 -3 150 -23z"/>
<path d="M3296 5816 l-54 -62 395 -47 c217 -27 397 -46 399 -44 2 2 -81 29
-184 60 -103 32 -258 80 -344 106 l-158 49 -54 -62z"/>
<path d="M4707 4269 c-529 -151 -1005 -834 -1088 -1559 -46 -404 124 -808 394
-936 105 -49 196 -62 290 -42 259 56 493 223 714 508 64 83 218 329 210 337
-7 6 -314 83 -331 83 -6 0 -26 -23 -45 -50 -52 -77 -161 -174 -238 -212 -66
-32 -71 -33 -198 -33 -115 0 -135 3 -171 22 -78 42 -133 123 -160 240 -23 100
-15 360 16 463 27 95 86 220 138 296 57 85 167 186 242 225 60 30 74 33 190
39 l125 5 258 172 258 171 -32 39 c-115 135 -200 200 -307 233 -81 25 -175 25
-265 -1z"/>
<path d="M10932 2779 c-376 -61 -774 -423 -1018 -924 -154 -316 -227 -608
-228 -900 0 -138 4 -176 27 -273 47 -201 118 -340 237 -462 77 -79 180 -142
256 -156 29 -5 34 -10 34 -35 l0 -29 90 0 90 0 0 28 c0 27 4 30 53 41 122 27
326 142 456 257 94 84 268 282 336 385 81 122 221 415 275 577 82 246 120 511
100 699 -6 59 -18 136 -26 171 -16 74 -19 173 -3 189 7 7 0 29 -25 75 -20 36
-36 72 -36 81 0 13 -10 17 -47 17 -45 1 -50 4 -83 46 -44 57 -128 123 -205
162 -98 49 -190 66 -283 51z m40 -691 c57 -17 131 -88 167 -159 46 -91 54
-150 49 -348 -4 -152 -9 -188 -31 -261 -77 -254 -226 -454 -406 -543 l-84 -42
-131 0 c-115 0 -136 3 -171 22 -82 44 -147 137 -176 253 -23 89 -18 345 8 450
75 301 244 527 459 615 50 21 76 25 168 25 60 0 127 -5 148 -12z"/>
</g>
</svg>
